<svg width="32" height="32" viewBox="0 0 32 32" fill="none" xmlns="http://www.w3.org/2000/svg">
<g id="Frame" clip-path="url(#clip0_0_247)">
<path id="Vector" d="M28.65 4C29.008 4 29.3514 4.14048 29.6046 4.39052C29.8578 4.64057 30 4.97971 30 5.33333V14.6667C30 15.0203 29.8578 15.3594 29.6046 15.6095C29.3514 15.8595 29.008 16 28.65 16H25.9487L25.95 26.6667C25.95 27.0203 25.8078 27.3594 25.5546 27.6095C25.3014 27.8595 24.958 28 24.6 28H8.4C8.04196 28 7.69858 27.8595 7.44541 27.6095C7.19223 27.3594 7.05 27.0203 7.05 26.6667L7.04865 15.9987L4.35 16C3.99196 16 3.64858 15.8595 3.39541 15.6095C3.14223 15.3594 3 15.0203 3 14.6667V5.33333C3 4.97971 3.14223 4.64057 3.39541 4.39052C3.64858 4.14048 3.99196 4 4.35 4H12.45C12.45 5.06087 12.8767 6.07828 13.6362 6.82843C14.3957 7.57857 15.4259 8 16.5 8C17.5741 8 18.6043 7.57857 19.3638 6.82843C20.1233 6.07828 20.55 5.06087 20.55 4H28.65Z" fill="url(#paint0_linear_0_247)"/>
</g>
<defs>
<linearGradient id="paint0_linear_0_247" x1="3" y1="16" x2="30" y2="16" gradientUnits="userSpaceOnUse">
<stop stop-color="#F857A6"/>
<stop offset="1" stop-color="#FF5858"/>
</linearGradient>
<clipPath id="clip0_0_247">
<rect width="32" height="32" fill="white"/>
</clipPath>
</defs>
</svg>
