<svg width="32" height="32" viewBox="0 0 32 32" fill="none" xmlns="http://www.w3.org/2000/svg">
<g id="Frame" clip-path="url(#clip0_0_223)">
<path id="Vector" d="M14.7701 3L28.0964 4.90483L30 18.2319L17.6254 30.6059C17.373 30.8582 17.0306 31 16.6736 31C16.3167 31 15.9743 30.8582 15.7219 30.6059L2.39416 17.2788C2.14178 17.0264 2 16.684 2 16.3271C2 15.9701 2.14178 15.6278 2.39416 15.3753L14.7701 3ZM18.5772 14.4236C18.8273 14.6735 19.1241 14.8718 19.4508 15.0071C19.7775 15.1423 20.1277 15.2119 20.4813 15.2118C20.8349 15.2118 21.185 15.1421 21.5116 15.0067C21.8383 14.8713 22.1351 14.673 22.385 14.4229C22.635 14.1729 22.8333 13.876 22.9686 13.5493C23.1038 13.2226 23.1734 12.8725 23.1733 12.5189C23.1733 12.1654 23.1036 11.8153 22.9682 11.4886C22.8328 11.162 22.6344 10.8652 22.3844 10.6153C22.1343 10.3653 21.8374 10.167 21.5107 10.0318C21.184 9.89654 20.8339 9.82696 20.4803 9.82702C19.7662 9.82715 19.0814 10.1109 18.5765 10.6159C18.0717 11.121 17.7881 11.8058 17.7883 12.5199C17.7884 13.234 18.0722 13.9187 18.5772 14.4236Z" fill="url(#paint0_linear_0_223)"/>
</g>
<defs>
<linearGradient id="paint0_linear_0_223" x1="2" y1="17" x2="30" y2="17" gradientUnits="userSpaceOnUse">
<stop stop-color="#4568DC"/>
<stop offset="1" stop-color="#B06AB3"/>
</linearGradient>
<clipPath id="clip0_0_223">
<rect width="32" height="32" fill="white"/>
</clipPath>
</defs>
</svg>
