<svg width="32" height="32" viewBox="0 0 32 32" fill="none" xmlns="http://www.w3.org/2000/svg">
<g id="Frame" clip-path="url(#clip0_0_271)">
<path id="Vector" d="M8.59211 3C9.32647 3 10.0536 3.14464 10.7321 3.42567C11.4106 3.7067 12.027 4.11861 12.5463 4.63789C13.0656 5.15716 13.4775 5.77363 13.7585 6.4521C14.0396 7.13056 14.1842 7.85774 14.1842 8.5921V14.1842H8.59211C7.10899 14.1842 5.68661 13.595 4.63789 12.5463C3.58917 11.4976 3 10.0752 3 8.5921C3 7.10899 3.58917 5.68661 4.63789 4.63789C5.68661 3.58917 7.10899 3 8.59211 3ZM8.59211 16.8158H14.1842V22.4079C14.1842 23.5139 13.8562 24.5951 13.2418 25.5147C12.6273 26.4343 11.7539 27.1511 10.7321 27.5743C9.71029 27.9976 8.5859 28.1083 7.50114 27.8925C6.41638 27.6768 5.41996 27.1442 4.63789 26.3621C3.85582 25.58 3.32323 24.5836 3.10745 23.4989C2.89168 22.4141 3.00242 21.2897 3.42568 20.2679C3.84893 19.2461 4.56568 18.3727 5.4853 17.7582C6.40492 17.1438 7.48609 16.8158 8.59211 16.8158ZM22.4079 3C23.891 3 25.3134 3.58917 26.3621 4.63789C27.4108 5.68661 28 7.10899 28 8.5921C28 10.0752 27.4108 11.4976 26.3621 12.5463C25.3134 13.595 23.891 14.1842 22.4079 14.1842H16.8158V8.5921C16.8158 7.10899 17.405 5.68661 18.4537 4.63789C19.5024 3.58917 20.9248 3 22.4079 3ZM16.8158 16.8158H22.4079C23.5139 16.8158 24.5951 17.1438 25.5147 17.7582C26.4343 18.3727 27.1511 19.2461 27.5743 20.2679C27.9976 21.2897 28.1083 22.4141 27.8925 23.4989C27.6768 24.5836 27.1442 25.58 26.3621 26.3621C25.58 27.1442 24.5836 27.6768 23.4989 27.8925C22.4141 28.1083 21.2897 27.9976 20.2679 27.5743C19.2461 27.1511 18.3727 26.4343 17.7582 25.5147C17.1438 24.5951 16.8158 23.5139 16.8158 22.4079V16.8158Z" fill="url(#paint0_linear_0_271)"/>
</g>
<defs>
<linearGradient id="paint0_linear_0_271" x1="3" y1="15.5" x2="28" y2="15.5" gradientUnits="userSpaceOnUse">
<stop stop-color="#6A3093"/>
<stop offset="1" stop-color="#A044FF"/>
</linearGradient>
<clipPath id="clip0_0_271">
<rect width="32" height="32" fill="white"/>
</clipPath>
</defs>
</svg>
