<svg width="32" height="32" viewBox="0 0 32 32" fill="none" xmlns="http://www.w3.org/2000/svg">
<g id="Frame" clip-path="url(#clip0_0_253)">
<path id="Vector" d="M16.9934 18.3441L19.3895 19.7278C17.9591 22.8963 17.8086 26.4951 18.9697 29.7718C18.1551 29.9242 17.3281 30.0006 16.4993 30C14.5865 30.003 12.695 29.598 10.9511 28.812L16.9934 18.3441ZM21.7411 21.0873L27.4567 24.3867C25.9679 26.4533 23.9265 28.0582 21.567 29.0172C20.6683 26.5906 20.6721 23.9217 21.5778 21.4977L21.7411 21.0873ZM12.2605 15.6117L14.6567 16.9941L8.61437 27.4566C6.37928 25.8467 4.68859 23.5931 3.76811 20.9968C7.02998 20.3945 9.9549 18.6096 11.9824 15.9843L12.2605 15.6117ZM29.8717 14.6316C29.9568 15.2431 30 15.8668 30 16.5C30.003 18.4129 29.598 20.3045 28.812 22.0485L23.0937 18.7477C24.7037 16.6227 27.0439 15.1697 29.6625 14.6694L29.8717 14.6316ZM4.18929 10.9529L9.90625 14.2536C8.25175 16.4371 5.82846 17.9092 3.12824 18.3711C3.04277 17.7511 2.99992 17.1259 3 16.5C3 14.5222 3.42523 12.6444 4.18794 10.9515L4.18929 10.9529ZM24.3856 5.54206C26.6207 7.15197 28.3114 9.40555 29.2319 12.0018C25.9694 12.6054 23.0442 14.3911 21.0162 17.017L20.7395 17.3896L18.3433 16.0059L24.3856 5.54341V5.54206ZM16.4993 3.00001C18.477 3.00001 20.3547 3.42526 22.0475 4.18801L16.0052 14.6559L13.6091 13.2735C15.0403 10.1043 15.1907 6.5044 14.0289 3.22681C14.8436 3.07495 15.6706 2.99902 16.4993 3.00001ZM11.433 3.98551C12.3303 6.41253 12.3255 9.08122 11.4195 11.505L11.2575 11.9141L5.54192 8.6133C6.97317 6.62742 8.91569 5.06643 11.163 4.09621L11.433 3.98416V3.98551Z" fill="url(#paint0_linear_0_253)"/>
</g>
<defs>
<linearGradient id="paint0_linear_0_253" x1="3" y1="16.5" x2="30" y2="16.5" gradientUnits="userSpaceOnUse">
<stop stop-color="#00D2FF"/>
<stop offset="1" stop-color="#3A7BD5"/>
</linearGradient>
<clipPath id="clip0_0_253">
<rect width="32" height="32" fill="white"/>
</clipPath>
</defs>
</svg>
