<svg width="32" height="32" viewBox="0 0 32 32" fill="none" xmlns="http://www.w3.org/2000/svg">
<g id="Frame" clip-path="url(#clip0_0_217)">
<path id="Vector" d="M8.35714 3H24.6429C25.0028 3 25.348 3.14223 25.6025 3.39541C25.857 3.64858 26 3.99196 26 4.35V28.65C26 29.008 25.857 29.3514 25.6025 29.6046C25.348 29.8578 25.0028 30 24.6429 30H8.35714C7.99721 30 7.65201 29.8578 7.3975 29.6046C7.14298 29.3514 7 29.008 7 28.65V4.35C7 3.99196 7.14298 3.64858 7.3975 3.39541C7.65201 3.14223 7.99721 3 8.35714 3ZM16.5 23.25C16.1401 23.25 15.7949 23.3922 15.5404 23.6454C15.2858 23.8986 15.1429 24.242 15.1429 24.6C15.1429 24.958 15.2858 25.3014 15.5404 25.5546C15.7949 25.8078 16.1401 25.95 16.5 25.95C16.8599 25.95 17.2051 25.8078 17.4596 25.5546C17.7142 25.3014 17.8571 24.958 17.8571 24.6C17.8571 24.242 17.7142 23.8986 17.4596 23.6454C17.2051 23.3922 16.8599 23.25 16.5 23.25Z" fill="url(#paint0_linear_0_217)"/>
</g>
<defs>
<linearGradient id="paint0_linear_0_217" x1="7" y1="16.5" x2="26" y2="16.5" gradientUnits="userSpaceOnUse">
<stop stop-color="#0052D4"/>
<stop offset="0.5" stop-color="#4364F7"/>
<stop offset="1" stop-color="#6FB1FC"/>
</linearGradient>
<clipPath id="clip0_0_217">
<rect width="32" height="32" fill="white"/>
</clipPath>
</defs>
</svg>
