<svg width="32" height="32" viewBox="0 0 32 32" fill="none" xmlns="http://www.w3.org/2000/svg">
<g id="Frame" clip-path="url(#clip0_0_259)">
<path id="Vector" d="M22.0909 5C24.1885 5 26.2002 5.82969 27.6835 7.30653C29.1667 8.78338 30 10.7864 30 12.875V18.125C30 20.2136 29.1667 22.2166 27.6835 23.6935C26.2002 25.1703 24.1885 26 22.0909 26H8.90909C6.81147 26 4.79976 25.1703 3.31652 23.6935C1.83328 22.2166 1 20.2136 1 18.125V12.875C1 10.7864 1.83328 8.78338 3.31652 7.30653C4.79976 5.82969 6.81147 5 8.90909 5H22.0909ZM12.8636 11.5625H10.2273V14.1875H7.59091V16.8125H10.226L10.2273 19.4375H12.8636L12.8623 16.8125H15.5V14.1875H12.8636V11.5625ZM23.4091 16.8125H20.7727V19.4375H23.4091V16.8125ZM20.7727 11.5625H18.1364V14.1875H20.7727V11.5625Z" fill="url(#paint0_linear_0_259)"/>
</g>
<defs>
<linearGradient id="paint0_linear_0_259" x1="1" y1="15.5" x2="30" y2="15.5" gradientUnits="userSpaceOnUse">
<stop stop-color="#D38312"/>
<stop offset="1" stop-color="#A83279"/>
</linearGradient>
<clipPath id="clip0_0_259">
<rect width="32" height="32" fill="white"/>
</clipPath>
</defs>
</svg>
